<?xml version="1.0" standalone="no"?>
<!DOCTYPE svg PUBLIC "-//W3C//DTD SVG 20010904//EN"
 "http://www.w3.org/TR/2001/REC-SVG-20010904/DTD/svg10.dtd">
<svg version="1.0" xmlns="http://www.w3.org/2000/svg"
 width="512.000000pt" height="512.000000pt" viewBox="0 0 512.000000 512.000000"
 preserveAspectRatio="xMidYMid meet">

<g transform="translate(0.000000,512.000000) scale(0.100000,-0.100000)"
fill="#00BBF0" stroke="none">
<path d="M2457 5110 c-136 -35 -248 -147 -286 -287 -7 -25 -24 -52 -42 -67
-31 -26 -31 -26 -225 -26 l-194 0 0 -325 0 -325 850 0 850 0 0 324 0 325 -204
3 c-201 3 -205 3 -230 27 -15 14 -33 46 -40 71 -35 119 -97 195 -201 246 -63
31 -85 37 -157 40 -45 2 -100 -1 -121 -6z"/>
<path d="M865 4331 c-83 -21 -150 -77 -186 -156 -18 -38 -19 -125 -19 -1995
l0 -1955 24 -51 c29 -63 79 -114 142 -145 l49 -24 1665 -3 c1842 -3 1722 -7
1812 63 31 23 56 55 77 96 l31 62 0 1956 c0 1871 -1 1958 -19 1996 -27 60 -67
103 -125 133 l-51 27 -327 3 -328 3 0 -186 c0 -198 -8 -243 -49 -264 -14 -8
-313 -10 -1013 -9 l-992 3 -23 34 c-22 32 -23 42 -23 227 l0 194 -307 -1
c-170 -1 -321 -4 -338 -8z m1158 -932 c26 -28 35 -68 21 -102 -3 -8 -129 -131
-280 -272 -294 -275 -311 -286 -364 -248 -56 40 -309 311 -316 337 -16 63 57
136 121 120 21 -5 151 -130 218 -208 l24 -30 222 210 c123 115 234 214 249
221 37 16 72 7 105 -28z m1962 -321 c15 -7 33 -24 41 -39 23 -45 17 -78 -20
-115 l-34 -34 -782 0 c-712 0 -784 1 -810 17 -66 38 -65 132 1 169 33 18 1564
20 1604 2z m-1964 -727 c30 -31 38 -75 19 -110 -15 -28 -538 -515 -564 -525
-48 -19 -78 2 -233 162 -164 170 -178 193 -149 250 20 39 44 52 95 52 37 0 45
-6 150 -117 l111 -117 57 55 c32 30 135 128 230 217 165 156 173 162 213 162
33 0 48 -6 71 -29z m1990 -349 c16 -18 29 -44 29 -58 0 -37 -25 -78 -55 -92
-37 -17 -1563 -17 -1600 0 -68 31 -72 130 -7 171 25 15 94 16 815 14 l789 -2
29 -33z m-1990 -701 c30 -31 38 -75 19 -110 -5 -10 -107 -111 -227 -223 -337
-316 -328 -308 -371 -308 -35 -1 -46 9 -194 162 -172 177 -187 203 -152 256
26 40 45 51 89 52 38 0 45 -5 152 -117 l113 -118 37 36 c401 380 423 399 464
399 31 0 47 -7 70 -29z m1990 -349 c16 -18 29 -44 29 -58 0 -33 -25 -81 -49
-94 -13 -7 -287 -10 -811 -10 l-792 0 -29 29 c-49 49 -30 135 35 161 11 5 373
8 804 7 l784 -2 29 -33z"/>
</g>
</svg>
