<?xml version="1.0" standalone="no"?>
<!DOCTYPE svg PUBLIC "-//W3C//DTD SVG 20010904//EN"
 "http://www.w3.org/TR/2001/REC-SVG-20010904/DTD/svg10.dtd">
<svg version="1.0" xmlns="http://www.w3.org/2000/svg"
 width="512.000000pt" height="512.000000pt" viewBox="0 0 512.000000 512.000000"
 preserveAspectRatio="xMidYMid meet">

<g transform="translate(0.000000,512.000000) scale(0.100000,-0.100000)"
fill="#00BBF0" stroke="none">
<path d="M83 4189 c-30 -15 -48 -33 -62 -63 -20 -41 -21 -59 -21 -516 0 -458
1 -475 21 -516 24 -50 82 -84 145 -84 57 0 152 -27 204 -57 301 -177 306 -601
8 -780 -59 -36 -151 -63 -212 -63 -63 0 -121 -34 -145 -84 -20 -41 -21 -58
-21 -516 0 -458 1 -475 21 -516 15 -31 32 -48 63 -63 41 -20 58 -21 579 -21
l537 0 0 241 c0 267 4 289 64 332 43 31 129 31 172 0 60 -43 64 -65 64 -332
l0 -241 1747 0 c1743 0 1747 0 1789 21 31 15 48 32 63 63 21 42 21 48 21 1566
0 1518 0 1524 -21 1566 -15 31 -32 48 -63 63 -42 21 -46 21 -1784 21 l-1742 0
0 -249 c0 -241 -1 -249 -23 -282 -64 -96 -207 -87 -257 16 -18 38 -20 62 -20
278 l0 237 -542 0 c-530 0 -544 -1 -585 -21z m2902 -595 c194 -50 335 -233
335 -434 0 -245 -205 -450 -450 -450 -201 0 -384 141 -434 335 -87 333 216
636 549 549z m1172 -12 c17 -12 38 -38 48 -58 38 -80 60 -41 -612 -1050 -549
-823 -625 -933 -658 -948 -74 -36 -165 -4 -200 70 -38 80 -60 41 612 1050 507
761 627 933 654 948 44 22 116 16 156 -12z m-2720 -300 c56 -40 63 -70 63
-272 0 -203 -7 -232 -64 -273 -43 -31 -129 -31 -172 0 -59 42 -66 71 -62 286
3 180 4 194 25 223 47 65 146 82 210 36z m0 -900 c56 -40 63 -70 63 -272 0
-203 -7 -232 -64 -273 -43 -31 -129 -31 -172 0 -59 42 -66 71 -62 286 3 180 4
194 25 223 47 65 146 82 210 36z m2748 12 c152 -39 280 -167 320 -319 86 -333
-217 -636 -550 -550 -152 40 -280 168 -319 320 -87 333 216 636 549 549z"/>
<path d="M2803 3289 c-30 -15 -48 -33 -62 -63 -26 -53 -26 -79 0 -132 21 -45
81 -84 129 -84 48 0 108 39 129 84 12 23 21 53 21 66 0 48 -39 108 -84 129
-53 26 -80 26 -133 0z"/>
<path d="M4003 2089 c-30 -15 -48 -33 -62 -63 -26 -53 -26 -79 0 -132 21 -45
81 -84 129 -84 13 0 43 9 66 21 45 21 84 81 84 129 0 48 -39 108 -84 129 -53
26 -80 26 -133 0z"/>
</g>
</svg>
