<?xml version="1.0" standalone="no"?>
<!DOCTYPE svg PUBLIC "-//W3C//DTD SVG 20010904//EN"
 "http://www.w3.org/TR/2001/REC-SVG-20010904/DTD/svg10.dtd">
<svg version="1.0" xmlns="http://www.w3.org/2000/svg"
 width="512.000000pt" height="512.000000pt" viewBox="0 0 512.000000 512.000000"
 preserveAspectRatio="xMidYMid meet">

<g transform="translate(0.000000,512.000000) scale(0.100000,-0.100000)"
fill="#000000" stroke="none">
<path d="M1177 4293 c140 -241 258 -441 262 -445 3 -4 207 193 451 437 l445
445 -707 0 -706 0 255 -437z"/>
<path d="M3230 4285 c244 -244 448 -441 451 -437 4 4 122 204 262 445 l255
437 -706 0 -707 0 445 -445z"/>
<path d="M2105 4230 l-450 -450 905 0 905 0 -450 450 c-247 248 -452 450 -455
450 -3 0 -208 -202 -455 -450z"/>
<path d="M376 4217 l-359 -432 613 -3 c337 -1 615 -1 617 1 5 5 -496 862 -505
864 -4 1 -168 -193 -366 -430z"/>
<path d="M4122 4218 c-139 -237 -251 -433 -249 -435 2 -2 280 -2 617 -1 l613
3 -359 432 c-198 237 -362 432 -365 432 -3 1 -119 -193 -257 -431z"/>
<path d="M105 3453 c57 -76 574 -753 1147 -1504 574 -752 1044 -1366 1045
-1365 1 1 -211 677 -471 1501 l-474 1500 -676 3 -677 2 106 -137z"/>
<path d="M1553 3583 c2 -5 228 -720 503 -1590 274 -871 501 -1583 504 -1583 3
0 230 712 504 1583 275 870 501 1585 503 1590 2 4 -451 7 -1007 7 -556 0
-1009 -3 -1007 -7z"/>
<path d="M3765 3578 c-23 -66 -944 -2993 -942 -2994 1 -1 471 613 1045 1365
573 751 1090 1428 1147 1504 l106 137 -676 0 c-532 0 -677 -3 -680 -12z"/>
</g>
</svg>
